<?xml version="1.0" encoding="UTF-8"?>
<svg version="1.1" xmlns="http://www.w3.org/2000/svg" width="1024" height="1024">
<path d="M0 0 C1.81961782 1.12071216 3.67726529 2.17967987 5.546875 3.21484375 C9.88333803 5.68303283 13.89908641 8.55535478 17.93359375 11.484375 C19.11828247 12.34373657 19.11828247 12.34373657 20.3269043 13.22045898 C34.64150836 23.70854481 49.79335269 35.85406831 61.30859375 49.421875 C61.30859375 50.081875 61.30859375 50.741875 61.30859375 51.421875 C61.96859375 51.421875 62.62859375 51.421875 63.30859375 51.421875 C63.30859375 52.081875 63.30859375 52.741875 63.30859375 53.421875 C63.96859375 53.421875 64.62859375 53.421875 65.30859375 53.421875 C66.97265625 55.44140625 66.97265625 55.44140625 68.93359375 58.234375 C70.01060547 59.75611328 70.01060547 59.75611328 71.109375 61.30859375 C71.83511719 62.33597656 72.56085938 63.36335938 73.30859375 64.421875 C74.57822905 66.1310989 75.8490459 67.83944582 77.12109375 69.546875 C92.5232761 90.86373556 104.58508408 113.59065866 113.30859375 138.421875 C113.59428223 139.23092285 113.8799707 140.0399707 114.17431641 140.87353516 C135.21123664 201.87933579 130.89089312 271.68450867 102.87280273 329.703125 C92.2838623 350.79815313 78.68917597 369.6263538 63.30859375 387.421875 C62.66921875 388.16308594 62.02984375 388.90429688 61.37109375 389.66796875 C60.26522343 390.94023159 59.15343206 392.20737729 58.03515625 393.46875 C56.76599536 394.90445236 55.5130746 396.35455262 54.26953125 397.8125 C48.79186 404.12246759 42.8667477 409.26903975 36.30859375 414.421875 C35.16049863 415.36705098 34.01476807 416.31510457 32.87109375 417.265625 C5.18120724 440.13777632 -27.30473707 456.06020241 -61.94140625 465.296875 C-62.70316162 465.50014404 -63.46491699 465.70341309 -64.24975586 465.9128418 C-67.84702038 466.83155475 -71.29171633 467.51514167 -74.9921875 467.84375 C-78.90024584 468.45451308 -80.04836848 468.92961081 -82.62890625 471.796875 C-83.62664062 472.88935547 -83.62664062 472.88935547 -84.64453125 474.00390625 C-87.52021597 477.40094602 -90.35140424 480.82841395 -93.140625 484.296875 C-103.33779517 496.89745982 -114.36148631 508.84574779 -125.37548828 520.72900391 C-128.73769237 524.36425841 -132.01792298 528.05977923 -135.2578125 531.8046875 C-137.30194788 534.11060588 -139.51267686 536.24314561 -141.69140625 538.421875 C-146.77093994 543.8008121 -151.49196441 549.37877672 -156.00390625 555.234375 C-175.77308387 580.78803564 -175.77308387 580.78803564 -184.3515625 583.15625 C-185.12371094 583.24390625 -185.89585937 583.3315625 -186.69140625 583.421875 C-187.69140625 582.421875 -187.69140625 582.421875 -187.81445408 580.53406429 C-187.81353229 579.70168523 -187.81261049 578.86930616 -187.81166077 578.01170349 C-187.81372276 576.58344238 -187.81372276 576.58344238 -187.81582642 575.12632751 C-187.81223114 574.07328934 -187.80863586 573.02025116 -187.80493164 571.93530273 C-187.80507767 570.83300323 -187.80522369 569.73070374 -187.80537415 568.59500122 C-187.80467446 564.93180408 -187.79687949 561.26865706 -187.7890625 557.60546875 C-187.78719852 555.07341032 -187.78577452 552.54135152 -187.78477478 550.0092926 C-187.78133971 544.01339251 -187.77344894 538.01751411 -187.76342529 532.02162272 C-187.75226302 525.19706442 -187.74675342 518.37250528 -187.74172986 511.54794014 C-187.73126629 497.50590836 -187.71366755 483.46389267 -187.69140625 469.421875 C-188.38752518 469.28710251 -189.0836441 469.15233002 -189.80085754 469.01347351 C-193.02178111 468.3871981 -196.24134562 467.75417811 -199.4609375 467.12109375 C-201.10261902 466.80344055 -201.10261902 466.80344055 -202.77746582 466.47937012 C-235.49279582 460.0185004 -265.90690102 445.78072865 -292.64453125 425.93798828 C-294.7007806 424.41493145 -296.77259856 422.91526719 -298.84765625 421.41796875 C-306.64468088 415.74118766 -313.89633408 409.73408041 -320.87890625 403.08203125 C-323.09914049 400.9820597 -325.34373737 398.99837476 -327.69140625 397.046875 C-337.75922099 388.29317502 -346.3402121 377.80787026 -354.35302734 367.18847656 C-355.68635837 365.42853798 -357.04123023 363.68687462 -358.3984375 361.9453125 C-395.3900453 313.79792613 -409.84972689 249.25541405 -402.12792969 189.49853516 C-395.14905446 140.31073556 -376.33487109 91.84035836 -341.69140625 55.421875 C-340.62208161 54.17770818 -339.55915822 52.92799981 -338.50390625 51.671875 C-325.57232944 36.84488977 -310.82923648 24.5717268 -294.69140625 13.421875 C-294.09312012 13.0079248 -293.49483398 12.59397461 -292.87841797 12.16748047 C-288.53105585 9.17611191 -284.13318793 6.27100376 -279.69140625 3.421875 C-279.05960449 3.01469238 -278.42780273 2.60750977 -277.77685547 2.18798828 C-197.31434272 -49.04868629 -81.15502718 -50.6288243 0 0 Z M-189.56640625 -2.828125 C-191.2230127 -2.43234253 -191.2230127 -2.43234253 -192.91308594 -2.02856445 C-216.04379674 3.59371537 -238.35638618 10.95133012 -258.83105469 23.31005859 C-260.69826665 24.42597503 -262.58485229 25.49957321 -264.48046875 26.56640625 C-273.96869078 31.97390946 -282.36041032 38.37920435 -290.69140625 45.421875 C-291.82835937 46.37900391 -291.82835937 46.37900391 -292.98828125 47.35546875 C-294.91642185 49.01669732 -296.80835755 50.70968207 -298.69140625 52.421875 C-300.12613281 53.71931641 -300.12613281 53.71931641 -301.58984375 55.04296875 C-310.7324533 63.34162321 -319.01073481 71.72363588 -326.69140625 81.421875 C-327.32046875 82.20691406 -327.94953125 82.99195313 -328.59765625 83.80078125 C-329.14421875 84.50074219 -329.69078125 85.20070313 -330.25390625 85.921875 C-330.72957031 86.5303125 -331.20523438 87.13875 -331.6953125 87.765625 C-332.94909983 89.52823544 -332.94909983 89.52823544 -332.69140625 92.421875 C-333.68140625 92.751875 -334.67140625 93.081875 -335.69140625 93.421875 C-337.37514957 95.57814309 -338.88923399 97.69937408 -340.37890625 99.984375 C-340.82024902 100.65549316 -341.2615918 101.32661133 -341.71630859 102.01806641 C-345.93040153 108.56335969 -349.41186454 115.37133208 -352.72363281 122.40673828 C-353.67169164 124.38082445 -354.66900289 126.32112814 -355.68359375 128.26171875 C-380.99617034 177.64370624 -381.63325487 239.01131347 -364.9453125 290.95703125 C-358.03866665 311.50654745 -347.86055694 330.23542899 -334.69140625 347.421875 C-333.96050781 348.38351562 -333.22960937 349.34515625 -332.4765625 350.3359375 C-330.59516893 352.74263106 -328.66818752 355.09312025 -326.69140625 357.421875 C-326.07910156 358.14503906 -325.46679688 358.86820313 -324.8359375 359.61328125 C-313.02371152 373.11623203 -300.27536726 385.93296088 -285.69140625 396.421875 C-284.11166016 397.5665625 -284.11166016 397.5665625 -282.5 398.734375 C-279.26622276 401.0198421 -275.99173537 403.23455733 -272.69140625 405.421875 C-272.11261719 405.81197754 -271.53382813 406.20208008 -270.9375 406.60400391 C-252.91339309 418.68657881 -233.42836506 427.20500219 -212.69140625 433.421875 C-211.2954005 433.86273565 -209.89955841 434.30411499 -208.50390625 434.74609375 C-194.04257909 439.16917457 -175.91996361 444.421875 -160.69140625 444.421875 C-160.69140625 468.181875 -160.69140625 491.941875 -160.69140625 516.421875 C-159.70140625 516.421875 -158.71140625 516.421875 -157.69140625 516.421875 C-157.30275391 515.5246875 -157.30275391 515.5246875 -156.90625 514.609375 C-155.59040092 512.24000044 -154.36022434 511.10342624 -152.25390625 509.421875 C-144.63564024 502.98097737 -138.2161871 495.2041099 -131.69921875 487.6796875 C-128.91329862 484.54688238 -126.05069955 481.48764158 -123.19140625 478.421875 C-116.14628632 470.85335816 -109.41231741 463.12523135 -102.87890625 455.109375 C-102.30269531 454.40248535 -101.72648437 453.6955957 -101.1328125 452.96728516 C-100.58882812 452.29616699 -100.04484375 451.62504883 -99.484375 450.93359375 C-98.99477295 450.32990967 -98.5051709 449.72622559 -98.00073242 449.10424805 C-96.82687731 447.59594382 -95.75158293 446.01214003 -94.69140625 444.421875 C-91.79663086 443.44213867 -91.79663086 443.44213867 -88.09375 442.58984375 C-87.43188187 442.43278961 -86.77001373 442.27573547 -86.08808899 442.11392212 C-84.67125983 441.77785868 -83.25329654 441.44654786 -81.83435059 441.11953735 C-78.15814898 440.26916012 -74.49264951 439.37575886 -70.828125 438.4765625 C-70.11189972 438.30089249 -69.39567444 438.12522247 -68.65774536 437.94422913 C-60.76740196 435.98305113 -53.23442622 433.42859443 -45.69140625 430.421875 C-44.73363281 430.0609375 -43.77585937 429.7 -42.7890625 429.328125 C-25.98474872 422.72895549 -10.13977119 414.22361629 4.30859375 403.421875 C4.89463379 402.98987793 5.48067383 402.55788086 6.08447266 402.11279297 C33.16383209 382.10091127 54.76752314 356.68623553 71.30859375 327.421875 C71.64697266 326.83937988 71.98535156 326.25688477 72.33398438 325.65673828 C97.64149492 281.99765341 105.41880627 225.49620794 94.30859375 176.421875 C93.98713379 174.97651367 93.98713379 174.97651367 93.65917969 173.50195312 C89.02832517 153.2124741 82.25092534 133.71989603 72.30859375 115.421875 C71.9621582 114.77057617 71.61572266 114.11927734 71.25878906 113.44824219 C58.57456792 89.64646948 41.49036193 65.40511413 20.30859375 48.421875 C19.40109375 47.68839844 18.49359375 46.95492187 17.55859375 46.19921875 C-13.43945161 21.74951047 -47.84837952 5.3151809 -86.31640625 -3.328125 C-87.18499268 -3.52688232 -88.0535791 -3.72563965 -88.94848633 -3.93041992 C-103.99420839 -7.15578697 -119.08652725 -7.90964697 -134.43212891 -7.83886719 C-137.18935111 -7.828133 -139.94592212 -7.83884523 -142.703125 -7.8515625 C-158.64940504 -7.86613521 -174.03917021 -6.61100291 -189.56640625 -2.828125 Z " fill="#000000" transform="translate(664.69140625,162.578125)"/>
<path d="M0 0 C4.92714304 4.19506336 8.89935208 8.76767822 12.52734375 14.1171875 C15.87913693 12.99992311 16.5444178 12.16268783 18.71484375 9.4921875 C29.867523 -3.49222078 44.93129765 -10.64962461 62.02978516 -12.09423828 C80.44559684 -13.05515309 95.36764327 -8.42227083 109.83984375 3.3046875 C117.36613028 10.51460358 123.63175593 18.79398398 127.83984375 28.3046875 C129.8039692 32.21400707 130.66813116 33.76100483 134.75 35.453125 C138.33468104 36.16622732 141.90481658 36.64216968 145.52734375 37.1171875 C148.73121652 38.12553815 151.58588814 39.50514421 154.52734375 41.1171875 C155.37554688 41.57609375 156.22375 42.035 157.09765625 42.5078125 C172.9471992 51.80982346 183.70735215 66.13921185 189.66015625 83.40234375 C190.65185458 87.47554249 190.55002906 91.29809763 190.40625 95.4765625 C190.38353531 96.15129105 190.36082062 96.82601959 190.3374176 97.52119446 C190.23777162 100.34276537 190.1338072 103.16148855 189.95825195 105.97949219 C189.28262697 117.38945753 191.88072991 123.36998238 199.52734375 132.1171875 C200.92838557 134.33969671 201.9079906 136.44614704 202.96484375 138.8671875 C203.41730469 139.87265625 203.86976563 140.878125 204.3359375 141.9140625 C209.95496275 157.02095006 209.40618045 175.15454081 203.52734375 190.1171875 C200.11281918 197.51705382 193.98633579 207.38769148 186.52734375 211.1171875 C186.67171875 212.3546875 186.81609375 213.5921875 186.96484375 214.8671875 C187.04605469 215.56328125 187.12726563 216.259375 187.2109375 216.9765625 C187.47934152 219.08588072 187.47934152 219.08588072 188.03222656 220.97021484 C190.78854474 232.92241505 189.00274777 246.87957428 184.52734375 258.1171875 C184.12644531 259.13941406 183.72554687 260.16164063 183.3125 261.21484375 C177.76018856 273.68742742 168.43076857 282.61777149 156.52734375 289.1171875 C155.851875 289.51421875 155.17640625 289.91125 154.48046875 290.3203125 C148.58670316 293.58380254 141.29144831 296.01775361 134.52709961 296.15893555 C130.42293011 296.26179239 130.42293011 296.26179239 127.19189453 298.53344727 C126.01544277 300.49376429 125.04136682 302.4760404 124.08984375 304.5546875 C118.65362414 315.21640219 112.0450241 323.15300204 101.52734375 329.1171875 C100.75777344 329.56835938 99.98820312 330.01953125 99.1953125 330.484375 C82.2486556 339.73796148 63.42777216 339.25925001 45.3515625 334.234375 C32.45013068 329.89131874 22.89184928 322.49869605 15.52734375 311.1171875 C15.52734375 310.4571875 15.52734375 309.7971875 15.52734375 309.1171875 C14.53734375 308.7871875 13.54734375 308.4571875 12.52734375 308.1171875 C12.04265625 308.83003906 11.55796875 309.54289062 11.05859375 310.27734375 C1.03537235 324.5989851 -10.81745856 332.33357364 -27.7421875 336.703125 C-45.45682054 339.3894642 -62.70927753 336.54941985 -77.47265625 326.1171875 C-86.18752307 319.69502107 -94.25833475 310.15299125 -98.33105469 299.97119141 C-99.31197387 297.95014595 -99.31197387 297.95014595 -101.40527344 297.40698242 C-102.18547852 297.30490479 -102.96568359 297.20282715 -103.76953125 297.09765625 C-105.07386108 296.90127563 -105.07386108 296.90127563 -106.40454102 296.70092773 C-107.33451904 296.57016846 -108.26449707 296.43940918 -109.22265625 296.3046875 C-125.60346994 293.54977667 -138.2308765 286.60812583 -148.5625 273.45703125 C-158.26022184 259.04838108 -162.77071961 243.4316778 -161.47265625 226.1171875 C-160.94276267 224.05163144 -160.40137267 221.98898523 -159.84765625 219.9296875 C-159.15868692 216.99159349 -159.15868692 216.99159349 -159.47265625 214.1171875 C-161.59435939 211.14770022 -163.97153146 209.0014843 -166.7265625 206.61328125 C-173.56184518 200.40027181 -177.62430259 191.79106848 -180.47265625 183.1171875 C-180.69824219 182.45976562 -180.92382812 181.80234375 -181.15625 181.125 C-185.79479165 164.68216961 -182.09447095 147.0074738 -173.97265625 132.4296875 C-170.17011147 125.69956261 -170.17011147 125.69956261 -167.12890625 123.16015625 C-165.06764495 121.09034537 -165.06764495 121.09034537 -165.70703125 117.5390625 C-165.83400391 116.84232422 -165.96097656 116.14558594 -166.09179688 115.42773438 C-169.02593461 97.62729878 -165.76181958 80.43710609 -156.47265625 65.1171875 C-153.71143551 61.51449986 -150.68171041 58.32081179 -147.47265625 55.1171875 C-146.40724609 53.94542969 -146.40724609 53.94542969 -145.3203125 52.75 C-136.35504304 43.12003606 -123.68792644 35.49872169 -110.23046875 34.99609375 C-106.80476548 34.85513588 -104.5498172 34.66258591 -101.47265625 33.1171875 C-99.56500518 29.92402696 -98.25697727 26.89841576 -96.97851562 23.42675781 C-94.45375183 16.58911059 -90.79170332 12.11223171 -85.47265625 7.1171875 C-84.76238281 6.41207031 -84.05210937 5.70695312 -83.3203125 4.98046875 C-60.89970663 -16.30491657 -24.76517465 -18.85752635 0 0 Z M-69.47265625 27.1171875 C-73.6952597 32.58666393 -76.233804 37.30350013 -77.47265625 44.1171875 C-76.71339844 44.73464844 -75.95414062 45.35210937 -75.171875 45.98828125 C-65.12809168 54.54699155 -65.12809168 54.54699155 -63.5703125 61.078125 C-63.36344089 65.39760422 -65.40052188 67.92592708 -68.16015625 70.9921875 C-71.79441974 72.76020757 -74.61240837 73.09737583 -78.47265625 72.1171875 C-81.99756051 70.24223843 -85.30177812 68.18159111 -88.6171875 65.96484375 C-95.87560528 61.26822048 -107.20958458 62.0618845 -115.53125 63.73046875 C-124.03887446 66.82043796 -132.13624494 73.013236 -136.51171875 81.00390625 C-140.33377355 89.40931945 -140.86146621 96.92975221 -140.47265625 106.1171875 C-139.44140625 106.5709375 -138.41015625 107.0246875 -137.34765625 107.4921875 C-132.28930594 110.38708859 -129.7816751 114.89363787 -127.47265625 120.1171875 C-126.66015625 123.8671875 -126.66015625 123.8671875 -127.47265625 127.1171875 C-130.88080159 131.70871664 -136.06587236 134.0018174 -141.03515625 136.5546875 C-149.20989425 140.87642399 -152.7832247 144.51196251 -155.91015625 153.2421875 C-158.71580931 163.45523421 -157.70429689 172.91992601 -152.47265625 182.1171875 C-151.85390625 183.2103125 -151.23515625 184.3034375 -150.59765625 185.4296875 C-147.81661958 188.94688093 -144.96392356 191.70207311 -140.37890625 192.46606445 C-138.05058764 192.58989509 -135.74170703 192.62866355 -133.41015625 192.6171875 C-125.35862513 192.57775143 -125.35862513 192.57775143 -121.4765625 194.94140625 C-118.66598263 197.9930495 -118.47265625 200.00075233 -118.47265625 204.1171875 C-119.92044558 208.68915382 -121.16187246 211.84835393 -125.47265625 214.1171875 C-127.79184205 214.78395342 -130.09931171 215.43007524 -132.44921875 215.98046875 C-134.72953794 217.00547684 -134.72953794 217.00547684 -135.72265625 219.74609375 C-138.36656778 231.62992525 -136.77724496 243.18167251 -131 253.83203125 C-126.92740239 260.23457832 -122.02050057 264.35765966 -115.47265625 268.1171875 C-114.55419922 268.65859375 -114.55419922 268.65859375 -113.6171875 269.2109375 C-105.93203388 272.87538161 -94.24001147 272.3272842 -86.28515625 269.8046875 C-83.89414272 268.85551389 -82.02967093 267.83241122 -79.84765625 266.4296875 C-76.60749973 264.63907469 -74.11704888 264.84723249 -70.47265625 265.1171875 C-67.47265625 266.1171875 -67.47265625 266.1171875 -66.34765625 268.3046875 C-64.07450588 275.61124227 -64.07450588 275.61124227 -65.13671875 279.62890625 C-66.82999479 282.78275666 -68.36558257 283.47939803 -71.59765625 284.9296875 C-72.50773437 285.34863281 -73.4178125 285.76757812 -74.35546875 286.19921875 C-75.05414063 286.50214844 -75.7528125 286.80507813 -76.47265625 287.1171875 C-73.04874319 296.34895308 -66.8061974 303.04845936 -57.94921875 307.33984375 C-46.58293631 312.1013945 -36.07993575 312.23115998 -24.47265625 308.1171875 C-12.82506122 302.46606323 -4.97363658 293.9096676 -0.34765625 281.87890625 C3.39713844 270.05939802 2.64811747 256.94324185 -2.57421875 245.7578125 C-8.51713303 234.33208053 -16.16140448 228.33310843 -28.2734375 224.20703125 C-30.93963514 222.88577168 -31.99616384 221.68824052 -33.47265625 219.1171875 C-34.13347698 216.03886428 -34.07274197 213.20570209 -33.47265625 210.1171875 C-30.94297151 206.83543432 -29.39534294 205.42474973 -25.47265625 204.1171875 C-16.55399813 203.40369485 -9.9653941 206.21578706 -3.19921875 211.8125 C-1.39433414 213.3208785 -1.39433414 213.3208785 1.52734375 214.1171875 C3.78903673 184.24133734 3.78903673 184.24133734 -6.47265625 157.1171875 C-6.96507812 156.33988281 -7.4575 155.56257812 -7.96484375 154.76171875 C-11.97831279 149.67437556 -18.60139357 147.73968611 -24.51928711 145.59887695 C-31.45960815 143.04224268 -31.45960815 143.04224268 -33.47265625 139.1171875 C-34.06930776 135.19633473 -33.62453159 133.40968815 -31.78515625 129.8671875 C-28.84110949 126.36615892 -26.99367179 125.43731646 -22.50390625 124.8671875 C-13.99548949 124.38784008 -6.81751414 127.56543684 -0.47265625 133.1171875 C0.18734375 133.1171875 0.84734375 133.1171875 1.52734375 133.1171875 C1.61543576 129.30483646 1.66809865 125.49275197 1.71484375 121.6796875 C1.73998047 120.61041016 1.76511719 119.54113281 1.79101562 118.43945312 C1.87703016 109.06386926 -0.02265747 102.19607424 -4.66015625 94.0546875 C-5.18996094 93.11496094 -5.71976563 92.17523438 -6.265625 91.20703125 C-6.66394531 90.51738281 -7.06226563 89.82773437 -7.47265625 89.1171875 C-8.13265625 89.1171875 -8.79265625 89.1171875 -9.47265625 89.1171875 C-9.47265625 88.4571875 -9.47265625 87.7971875 -9.47265625 87.1171875 C-20.90183395 80.72616619 -20.90183395 80.72616619 -33.47265625 78.1171875 C-35.05111496 73.97373339 -36.13287554 70.55008843 -35.47265625 66.1171875 C-32.95119971 62.53834596 -30.48975098 60.84720792 -26.34765625 59.6796875 C-17.86367746 58.21401675 -10.48212112 60.5560205 -3.34765625 65.09375 C-1.38979995 66.35674168 -1.38979995 66.35674168 1.52734375 66.1171875 C2.15314086 51.17118436 2.15314086 51.17118436 -2.47265625 37.1171875 C-3.10880859 35.82748047 -3.10880859 35.82748047 -3.7578125 34.51171875 C-8.61395283 25.57046872 -15.89547524 18.74708266 -25.47265625 15.1171875 C-41.30765234 10.63785004 -58.50888763 14.78294781 -69.47265625 27.1171875 Z M36.40234375 27.0546875 C26.60618489 39.74016288 25.50058222 51.49912921 26.52734375 67.1171875 C30.27539086 65.70398941 33.69817828 63.96561253 37.21484375 62.0546875 C42.60801746 59.35810064 47.42959025 57.46423289 53.52734375 58.1171875 C57.60156147 59.55336814 60.10343237 61.48132043 62.52734375 65.1171875 C63.07684887 69.27772629 62.81630274 71.55038334 60.90234375 75.3046875 C57.26599441 79.25451523 51.94944813 79.8540489 46.93359375 81.11328125 C42.53585715 82.40940316 39.9059238 84.06037698 36.52734375 87.1171875 C36.52734375 87.7771875 36.52734375 88.4371875 36.52734375 89.1171875 C35.86734375 89.1171875 35.20734375 89.1171875 34.52734375 89.1171875 C24.87952725 102.98592372 25.62825483 116.71227281 26.52734375 133.1171875 C28.97037197 131.9426547 31.04576331 130.75193736 33.27734375 129.1796875 C40.01427293 124.90432859 46.48854855 122.89389258 54.52734375 124.1171875 C57.77505632 125.74104379 59.7252576 127.10586149 61.96484375 129.9296875 C63.10359496 134.35816443 61.63836691 138.78704593 60.52734375 143.1171875 C59.77710938 143.27574219 59.026875 143.43429687 58.25390625 143.59765625 C46.54474421 146.26687329 37.46561978 149.85988038 30.52734375 160.1171875 C26.88074388 167.8029032 26.37709989 175.85801593 26.4296875 184.234375 C26.43110245 185.09153107 26.4325174 185.94868713 26.43397522 186.83181763 C26.43954353 189.5519774 26.45209011 192.27205288 26.46484375 194.9921875 C26.46986285 196.84374881 26.47442504 198.69531141 26.47851562 200.546875 C26.48950258 205.07034465 26.50674523 209.59375182 26.52734375 214.1171875 C29.48102166 212.67620913 32.09219359 211.07764436 34.77734375 209.1796875 C41.47234758 204.70541206 48.29993872 201.52331752 56.52734375 203.1171875 C59.38436751 204.46202086 60.38367421 205.59837579 62.52734375 208.1171875 C63.64054074 212.27312293 64.04432661 216.03300287 62.52734375 220.1171875 C59.4541432 221.92704002 56.09432948 223.07820341 52.77734375 224.3671875 C47.30932971 226.64331471 42.95995227 229.21095124 38.52734375 233.1171875 C37.82609375 233.71402344 37.12484375 234.31085938 36.40234375 234.92578125 C29.61539596 241.12635671 26.20681881 248.39344096 25.55859375 257.58203125 C25.35728134 273.91350068 29.57301 285.68568688 38.52734375 299.1171875 C39.18734375 299.1171875 39.84734375 299.1171875 40.52734375 299.1171875 C40.52734375 299.7771875 40.52734375 300.4371875 40.52734375 301.1171875 C50.10928877 309.57784108 60.0494515 311.92163341 72.5546875 311.4609375 C83.89150455 310.47997398 92.09385058 305.844383 99.83984375 297.6796875 C102.06145473 294.30613008 103.82145721 290.77395492 105.52734375 287.1171875 C104.57021484 286.39402344 104.57021484 286.39402344 103.59375 285.65625 C102.35431641 284.70878906 102.35431641 284.70878906 101.08984375 283.7421875 C100.26613281 283.11570312 99.44242188 282.48921875 98.59375 281.84375 C96.52734375 280.1171875 96.52734375 280.1171875 95.52734375 278.1171875 C95.39842429 273.43004416 95.98443105 269.9654886 98.52734375 265.9921875 C102.15788877 263.72309686 103.93321823 263.63422721 108.0703125 264.3203125 C110.8971495 265.2371245 113.04205245 266.5563246 115.52734375 268.1796875 C120.47120011 271.331301 123.76107106 272.17796408 129.52734375 271.1171875 C137.30828727 269.30610582 144.09669267 266.90865301 150.52734375 262.1171875 C150.52734375 261.4571875 150.52734375 260.7971875 150.52734375 260.1171875 C151.18734375 260.1171875 151.84734375 260.1171875 152.52734375 260.1171875 C154.24910031 258.41956357 154.24910031 258.41956357 155.96484375 256.1796875 C156.86009766 255.08333984 156.86009766 255.08333984 157.7734375 253.96484375 C162.2296364 246.72972348 162.98894068 239.72854347 162.83984375 231.3671875 C162.84306641 230.44808594 162.84628906 229.52898437 162.84960938 228.58203125 C162.9575682 222.01628076 162.9575682 222.01628076 160.52734375 216.1171875 C157.83273825 215.22127716 157.83273825 215.22127716 154.71484375 215.0546875 C149.87437089 214.44527545 146.92895441 213.87068891 143.52734375 210.1171875 C141.54763844 206.15777689 142.21349124 201.42966164 143.21484375 197.2421875 C144.98449451 194.37703866 146.3240168 194.14515261 149.52734375 193.1171875 C151.53428194 192.80486278 153.54204437 192.49545304 155.5559082 192.23144531 C164.66435057 190.99416267 171.0157959 188.89353345 176.87890625 181.38671875 C181.68634652 173.82969934 182.77492959 164.438988 181.0625 155.76171875 C178.80961034 148.01657737 173.64891743 140.18248007 166.52734375 136.1171875 C163.52296901 134.98083896 160.51376465 134.00641675 157.4296875 133.109375 C154.42191117 132.0811446 152.06635654 131.0351468 149.52734375 129.1171875 C148.42944677 126.06270317 148.81080323 123.24837142 149.52734375 120.1171875 C151.40144751 116.49096306 153.62697657 113.01755468 156.52734375 110.1171875 C157.66171875 109.9934375 158.79609375 109.8696875 159.96484375 109.7421875 C161.72828125 109.4328125 161.72828125 109.4328125 163.52734375 109.1171875 C167.07952629 103.78891369 165.84326569 97.19948384 164.90234375 91.0546875 C163.66485741 85.53359461 161.04177909 81.48780779 157.52734375 77.1171875 C157.02332031 76.488125 156.51929688 75.8590625 156 75.2109375 C149.24605804 67.68087018 139.76071023 63.53274527 129.77734375 62.8671875 C123.08549523 62.99297413 117.67443815 64.99379212 112.52734375 69.2421875 C108.41372234 72.52816795 104.77964015 73.53465283 99.52734375 73.1171875 C95.90945567 71.9331514 94.18092237 71.11176365 92.08984375 67.9296875 C91.10299732 62.99545537 91.16683947 59.17663216 93.94921875 54.96484375 C97.37738958 50.89199478 100.94234493 47.80108925 105.52734375 45.1171875 C105.08671046 36.74515497 99.46211431 29.28346614 93.51171875 23.71484375 C76.03049209 9.64039157 52.25255045 10.7873701 36.40234375 27.0546875 Z " fill="#000000" transform="translate(514.47265625,209.8828125)"/>
<path d="M0 0 C3.85965986 1.69448482 6.84340576 3.89109059 9.5625 7.125 C10.75 10.625 10.75 10.625 10.5625 14.125 C6.08759197 22.73059237 -1.2750699 27.85642154 -10.3984375 30.74609375 C-20.64151472 32.64950082 -30.21982033 30.56871437 -39 25.0625 C-41.4375 23.125 -41.4375 23.125 -43.4375 20.125 C-43.92134204 15.20593925 -43.95105236 13.06651265 -41.5625 8.6875 C-39.4375 6.125 -39.4375 6.125 -37.4375 5.125 C-35.44140625 5.2109375 -35.44140625 5.2109375 -33 5.5 C-31.66001953 5.64308594 -31.66001953 5.64308594 -30.29296875 5.7890625 C-28.39705501 6.01211118 -26.50355184 6.25676032 -24.61328125 6.5234375 C-16.68190458 7.51900779 -11.78487567 6.48785341 -5.25 1.875 C-2.4375 0.125 -2.4375 0.125 0 0 Z " fill="#000000" transform="translate(632.4375,299.875)"/>
<path d="M0 0 C6.43539218 3.70758754 12.61505348 2.75043775 19.625 1.3125 C24.44588748 0.76204876 27.53181507 0.56093536 31.625 3.375 C34.06078708 6.95256227 34.6997108 8.97927334 34.625 13.3125 C32.70577419 18.61321891 30.67456283 20.59720468 25.6875 23.1875 C16.62714003 27.41660156 6.12876793 27.85596556 -3.3125 24.5625 C-10.74456501 21.46490995 -17.08158147 17.28010493 -21.375 10.3125 C-22.22040679 7.10209445 -22.25535558 4.51601615 -21.375 1.3125 C-19.125 -1.625 -19.125 -1.625 -16.375 -3.6875 C-15.776875 -4.1825 -15.17875 -4.6775 -14.5625 -5.1875 C-9.38214999 -6.37158 -4.2521641 -2.63408396 0 0 Z " fill="#000000" transform="translate(435.375,305.6875)"/>
<path d="M0 0 C3.74047262 1.83817512 7.18404362 4.15251468 10.68359375 6.40625 C15.11877617 9.16520615 18.62122803 11.04254396 24 11 C26.75615516 10.13177897 29.24647364 8.87986989 31.8125 7.5625 C37.83133641 4.71256949 43.23253564 2.31145781 50 4 C53.50745952 6.04601805 55.73959779 8.10421136 57 12 C57.49098565 15.7642233 57.15217784 17.68296283 55.5 21.125 C52.3603753 24.7355684 49.3122323 26.1163173 45 28 C43.53840291 28.74361957 42.07993712 29.4934327 40.625 30.25 C37.24615385 32 37.24615385 32 35 32 C35 32.66 35 33.32 35 34 C34.34 34 33.68 34 33 34 C28.15301412 45.42503813 28.49533784 54.52586052 33 66 C33.66 66 34.32 66 35 66 C35 66.66 35 67.32 35 68 C35.85271484 68.185625 35.85271484 68.185625 36.72265625 68.375 C43.32723807 70.13916209 47.47345364 73.06401203 51 79 C51.85474881 83.50685737 51.38378845 85.29859353 49.1875 89.3125 C47.06594999 91.91897573 45.48058927 93.71235996 42.08984375 94.37109375 C32.83492654 94.65663566 26.3892424 90.61886362 19.75 84.4375 C14.80539546 79.23633579 11.67850752 73.62387671 9 67 C8.43539063 65.67548828 8.43539063 65.67548828 7.859375 64.32421875 C6.62687484 59.55668404 6.71080088 54.96565651 6.75 50.0625 C6.74226563 49.09892578 6.73453125 48.13535156 6.7265625 47.14257812 C6.741437 41.70222842 7.19820991 37.14082172 9 32 C7.88625 31.443125 6.7725 30.88625 5.625 30.3125 C4.89925781 29.94640625 4.17351562 29.5803125 3.42578125 29.203125 C1.76666346 28.38024532 0.09664904 27.57907399 -1.58203125 26.796875 C-8.3663928 23.58269472 -13.13822689 20.73226342 -16 13.5 C-16.92381241 10.33489271 -17.1318858 9.37092882 -16 6.1875 C-11.03213462 0.75389725 -7.3369046 -2.07193051 0 0 Z " fill="#000000" transform="translate(417,365)"/>
<path d="M0 0 C3.69053958 1.96305297 4.75452705 3.48941627 6.5625 7.25 C7.15207341 12.30348639 5.96478966 14.95130874 3 19 C-2.08920361 24.74286279 -7.78643768 27.62011571 -15 30 C-14.855625 30.55042969 -14.71125 31.10085938 -14.5625 31.66796875 C-11.49693566 45.39914237 -10.43270634 61.66202121 -18 74 C-20.4663577 77.85432888 -23.09859773 81.46252108 -26 85 C-26.5671875 85.69351563 -27.134375 86.38703125 -27.71875 87.1015625 C-31.97093094 91.81506496 -36.76035227 94.66013834 -43 96 C-46.84385792 96.00669662 -49.66393641 95.17321006 -52.5703125 92.62109375 C-55.65774332 89.10142261 -56.88343699 86.25888051 -57.3125 81.625 C-56.92964159 77.1838425 -56.33792374 75.94055186 -53 73 C-44.89542484 69 -44.89542484 69 -41 69 C-41 68.34 -41 67.68 -41 67 C-40.34 67 -39.68 67 -39 67 C-35.76413342 59.01819576 -34.14999889 50.75740257 -36.87109375 42.2890625 C-41.29157316 33.79594469 -48.21771576 29.61727539 -56.546875 25.39453125 C-59.63934695 23.63654959 -61.55390861 22.40238312 -62.65234375 18.94921875 C-63.19403726 14.65277299 -63.3010455 12.58058775 -61.25 8.625 C-60.5075 7.75875 -59.765 6.8925 -59 6 C-58.3503125 5.071875 -58.3503125 5.071875 -57.6875 4.125 C-54.85679911 2.23786607 -52.33923161 2.77892439 -49 3 C-45.15977136 4.05129726 -41.46913196 5.51726607 -37.75976562 6.95507812 C-32.29506619 8.93842335 -28.6977337 9.38126878 -23 8 C-20.54761902 6.71541949 -18.35456162 5.44702597 -16.0625 3.9375 C-10.7731283 0.70058293 -6.25781366 -1.77082812 0 0 Z " fill="#000000" transform="translate(645,364)"/>
<path d="M0 0 C9.9 0 19.8 0 30 0 C30 55.77 30 111.54 30 169 C20.1 169 10.2 169 0 169 C0 113.23 0 57.46 0 0 Z " fill="#000000" transform="translate(886,771)"/>
<path d="M0 0 C5.31294773 2.69629253 8.10418604 6.76568312 9.94921875 12.30078125 C10.51306004 17.99340963 10.25641781 22.45022263 6.94921875 27.30078125 C2.53587849 31.64350806 -0.61595963 33.46712253 -6.80078125 33.61328125 C-12.08177334 33.56274544 -15.05717192 32.99486988 -19.05078125 29.30078125 C-23.31074386 24.58028214 -24.43168433 20.93763526 -24.3203125 14.7109375 C-23.77127835 9.80145819 -21.93985612 6.09409656 -18.35546875 2.69140625 C-12.72940295 -1.36300554 -6.59895858 -2.24993064 0 0 Z " fill="#000000" transform="translate(261.05078125,774.69921875)"/>
<path d="M0 0 C5.31294773 2.69629253 8.10418604 6.76568312 9.94921875 12.30078125 C10.51306004 17.99340963 10.25641781 22.45022263 6.94921875 27.30078125 C2.53587849 31.64350806 -0.61595963 33.46712253 -6.80078125 33.61328125 C-12.08177334 33.56274544 -15.05717192 32.99486988 -19.05078125 29.30078125 C-23.31074386 24.58028214 -24.43168433 20.93763526 -24.3203125 14.7109375 C-23.77127835 9.80145819 -21.93985612 6.09409656 -18.35546875 2.69140625 C-12.72940295 -1.36300554 -6.59895858 -2.24993064 0 0 Z " fill="#000000" transform="translate(522.05078125,774.69921875)"/>
<path d="M0 0 C5.31294773 2.69629253 8.10418604 6.76568312 9.94921875 12.30078125 C10.51306004 17.99340963 10.25641781 22.45022263 6.94921875 27.30078125 C2.53587849 31.64350806 -0.61595963 33.46712253 -6.80078125 33.61328125 C-12.08177334 33.56274544 -15.05717192 32.99486988 -19.05078125 29.30078125 C-23.31074386 24.58028214 -24.43168433 20.93763526 -24.3203125 14.7109375 C-23.77127835 9.80145819 -21.93985612 6.09409656 -18.35546875 2.69140625 C-12.72940295 -1.36300554 -6.59895858 -2.24993064 0 0 Z " fill="#000000" transform="translate(580.05078125,774.69921875)"/>
<path d="M0 0 C10.23 0 20.46 0 31 0 C31.33 44.55 31.66 89.1 32 135 C56.75 135.33 81.5 135.66 107 136 C107 145.24 107 154.48 107 164 C71.69 164 36.38 164 0 164 C0 109.88 0 55.76 0 0 Z " fill="#000000" transform="translate(112,776)"/>
<path d="M0 0 C3.2133559 2.47404244 6.11958253 5.08446414 8.9375 8 C9.59492188 7.23816406 9.59492188 7.23816406 10.265625 6.4609375 C18.3261445 -2.28767513 28.69521104 -7.51619435 40.59765625 -8.21484375 C54.8891611 -8.67795481 67.50457109 -5.58648539 78.30859375 4.21484375 C89.10810564 16.05028004 89.36900223 29.61227944 89.23046875 44.6953125 C89.22486426 46.49705653 89.2205982 48.29880516 89.21760559 50.10055542 C89.20622395 54.8122245 89.17681528 59.52361028 89.14349365 64.23516846 C89.11264771 69.0551775 89.09906939 73.87523292 89.08398438 78.6953125 C89.05193829 88.13035198 88.99922596 97.56510796 88.9375 107 C79.0375 107 69.1375 107 58.9375 107 C58.9281543 104.83050781 58.91880859 102.66101563 58.90917969 100.42578125 C58.87532877 93.23716426 58.81973498 86.04883189 58.75359726 78.86044312 C58.71418095 74.50444081 58.68196398 70.14863889 58.66650391 65.79248047 C58.65129853 61.58415607 58.61678498 57.37638276 58.56919098 53.16830444 C58.55441699 51.56729945 58.54646128 49.96621576 58.54561615 48.36514282 C58.63500384 36.59633723 58.63500384 36.59633723 53.9375 26 C52.05471689 24.12064201 52.05471689 24.12064201 49.9375 23.0625 C49.2775 22.68222656 48.6175 22.30195312 47.9375 21.91015625 C41.01863924 18.76153407 33.94654691 19.45761869 26.98046875 22.0234375 C21.68556761 24.55446099 19.15206662 28.76871622 16.9375 34 C16.4703166 37.55106276 16.4703166 37.55106276 16.50512695 41.38232422 C16.4949353 42.09521103 16.48474365 42.80809784 16.47424316 43.54258728 C16.44424301 45.88003531 16.43486751 48.21707268 16.42578125 50.5546875 C16.40892487 52.18280383 16.39077333 53.81090723 16.37138367 55.43899536 C16.32398148 59.7099605 16.29410906 63.98087316 16.26794434 68.25201416 C16.23808928 72.61603149 16.19157599 76.97986821 16.14648438 81.34375 C16.06056247 89.89575938 15.99470885 98.44775029 15.9375 107 C6.0375 107 -3.8625 107 -14.0625 107 C-14.11148438 102.19566406 -14.16046875 97.39132812 -14.2109375 92.44140625 C-14.24635586 89.38344349 -14.28233407 86.32550755 -14.3203125 83.26757812 C-14.3804361 78.42232261 -14.43857434 73.57710429 -14.484375 68.73168945 C-14.52146355 64.82175398 -14.56788467 60.91202705 -14.62056351 57.00227165 C-14.63898308 55.51651637 -14.65413605 54.0307166 -14.66584396 52.54489326 C-14.2250743 37.92879624 -14.2250743 37.92879624 -20.38671875 25.28515625 C-26.20820279 20.82066149 -32.8876181 19.2027909 -40.0625 20 C-44.57629035 21.17523231 -49.01161678 22.65890515 -53.0625 25 C-54.26088209 27.32854463 -54.26088209 27.32854463 -55.0625 30 C-55.57470596 31.09860603 -55.57470596 31.09860603 -56.09725952 32.21940613 C-57.28905952 35.65265602 -57.34315745 38.54256698 -57.38134766 42.17700195 C-57.39139328 42.87998917 -57.4014389 43.58297638 -57.41178894 44.30726624 C-57.44253808 46.61759669 -57.45963272 48.92781171 -57.4765625 51.23828125 C-57.49528084 52.84540291 -57.51485475 54.45251481 -57.5352478 56.05961609 C-57.58650481 60.27961465 -57.62616484 64.49964505 -57.66339111 68.7197876 C-57.70347117 73.03006831 -57.75454523 77.3402173 -57.8046875 81.65039062 C-57.90137068 90.10017694 -57.98478304 98.55001793 -58.0625 107 C-67.9625 107 -77.8625 107 -88.0625 107 C-88.0625 69.71 -88.0625 32.42 -88.0625 -6 C-78.1625 -6 -68.2625 -6 -58.0625 -6 C-57.7325 -3.03 -57.4025 -0.06 -57.0625 3 C-55.94875 2.0925 -54.835 1.185 -53.6875 0.25 C-38.05256518 -11.49702918 -15.76968572 -11.19543251 0 0 Z " fill="#000000" transform="translate(385.0625,833)"/>
<path d="M0 0 C8.92834133 7.2133926 13.93453871 16.82338546 16 28 C16.51734719 34.02704444 16.35085541 40.0940928 16.29296875 46.13671875 C16.28736231 47.86977264 16.28309718 49.60283134 16.28010559 51.33589172 C16.2687392 55.8617808 16.2393443 60.38737364 16.20599365 64.91314697 C16.17511421 69.54557287 16.16156233 74.17804737 16.14648438 78.81054688 C16.11446533 87.87384794 16.06176611 96.93685281 16 106 C6.1 106 -3.8 106 -14 106 C-14.02578125 101.05128906 -14.0515625 96.10257813 -14.078125 91.00390625 C-14.10331384 87.85476707 -14.12966222 84.70572201 -14.16015625 81.55664062 C-14.20836881 76.56648494 -14.25245915 71.57654732 -14.27099609 66.58618164 C-14.28622381 62.55938974 -14.32077611 58.5331712 -14.36830902 54.50663567 C-14.3830602 52.9762364 -14.3910374 51.44575524 -14.39188385 49.91528511 C-14.34905905 36.53713315 -14.34905905 36.53713315 -20.67706299 25.13795471 C-25.46378275 20.52679565 -30.29749704 19.21794379 -36.875 18.6875 C-42.91277571 18.84020639 -48.75757678 21.08880619 -54 24 C-55.17657468 25.68019054 -55.17657468 25.68019054 -56 28 C-56.50378174 29.03705078 -57.00756348 30.07410156 -57.52661133 31.14257812 C-60.00836721 37.82180437 -59.48300077 45.06494117 -59.51171875 52.09375 C-59.52858578 53.65174761 -59.54673872 55.20973179 -59.56611633 56.7677002 C-59.61340308 60.84464314 -59.64334971 64.92153156 -59.66955566 68.99865723 C-59.69946951 73.16848512 -59.74596235 77.33812557 -59.79101562 81.5078125 C-59.8768059 89.67179793 -59.94272378 97.83576468 -60 106 C-69.9 106 -79.8 106 -90 106 C-90 68.71 -90 31.42 -90 -7 C-80.1 -7 -70.2 -7 -60 -7 C-60 -3.7 -60 -0.4 -60 3 C-59.39414062 2.54109375 -58.78828125 2.0821875 -58.1640625 1.609375 C-40.09770176 -11.62075994 -18.58992339 -13.29195197 0 0 Z " fill="#000000" transform="translate(706,834)"/>
<path d="M0 0 C1.70703125 1.3671875 1.70703125 1.3671875 3.70703125 3.3671875 C4.03703125 0.0671875 4.36703125 -3.2328125 4.70703125 -6.6328125 C14.60703125 -6.6328125 24.50703125 -6.6328125 34.70703125 -6.6328125 C34.70703125 30.6571875 34.70703125 67.9471875 34.70703125 106.3671875 C24.80703125 106.3671875 14.90703125 106.3671875 4.70703125 106.3671875 C4.37703125 103.0671875 4.04703125 99.7671875 3.70703125 96.3671875 C3.17335938 96.82609375 2.6396875 97.285 2.08984375 97.7578125 C-9.59431619 107.38006186 -21.44788534 109.34099035 -36.29296875 108.3671875 C-49.91480497 106.48059516 -61.44500274 99.54056629 -70.23046875 89.0546875 C-81.42930767 73.99417999 -84.31806555 56.40006048 -82.00439453 38.08251953 C-79.56801613 23.68990025 -72.41830273 10.3674437 -60.7265625 1.3984375 C-42.29691148 -10.97538224 -18.59446428 -13.31625828 0 0 Z M-45.29296875 29.3671875 C-50.12457797 35.85534845 -51.68593037 41.58115997 -51.66796875 49.6171875 C-51.66635742 50.36645508 -51.66474609 51.11572266 -51.66308594 51.88769531 C-51.49916407 59.32846234 -49.42717901 64.75544706 -45.66796875 71.1171875 C-37.74104325 78.62690639 -29.78364885 80.84261231 -19.10546875 80.65234375 C-14.09852582 80.27784904 -10.51518533 79.00953748 -6.29296875 76.3671875 C-5.40609375 75.8309375 -4.51921875 75.2946875 -3.60546875 74.7421875 C3.47960969 67.46562045 6.32543023 59.44383956 6.70703125 49.3671875 C6.33827783 40.09073437 3.54136275 32.00891615 -3.25390625 25.484375 C-16.06448829 15.32425821 -34.74600198 16.6487864 -45.29296875 29.3671875 Z " fill="#000000" transform="translate(823.29296875,833.6328125)"/>
<path d="M0 0 C9.9 0 19.8 0 30 0 C30 37.29 30 74.58 30 113 C20.1 113 10.2 113 0 113 C0 75.71 0 38.42 0 0 Z " fill="#000000" transform="translate(239,827)"/>
<path d="M0 0 C9.9 0 19.8 0 30 0 C30 37.29 30 74.58 30 113 C20.1 113 10.2 113 0 113 C0 75.71 0 38.42 0 0 Z " fill="#000000" transform="translate(500,827)"/>
<path d="M0 0 C9.9 0 19.8 0 30 0 C30 37.29 30 74.58 30 113 C20.1 113 10.2 113 0 113 C0 75.71 0 38.42 0 0 Z " fill="#000000" transform="translate(558,827)"/>
</svg>
